<svg width="159" height="40" fill="none" xmlns="http://www.w3.org/2000/svg"><rect width="40" height="40" rx="20" fill="#ABD27A"/><path d="M20 10s.552 5.15 2.7 7.3C24.85 19.447 30 20 30 20s-5.15.552-7.3 2.7C20.553 24.85 20 30 20 30s-.552-5.15-2.7-7.3C15.15 20.553 10 20 10 20s5.15-.552 7.3-2.7C19.447 15.15 20 10 20 10z" fill="#F9FAF7"/><path d="M55.288 22.36a9.218 9.218 0 0 0 1.152 1.632c.432.464.904.824 1.416 1.08a3.651 3.651 0 0 0 1.656.384c.688 0 1.248-.176 1.68-.528.432-.352.648-.832.648-1.44 0-.528-.136-.952-.408-1.272-.256-.32-.648-.6-1.176-.84a21.545 21.545 0 0 0-1.896-.816c-.4-.144-.864-.336-1.392-.576-.512-.256-1-.576-1.464-.96-.464-.4-.848-.88-1.152-1.44-.304-.576-.456-1.264-.456-2.064 0-.96.24-1.784.72-2.472.496-.704 1.16-1.24 1.992-1.608.848-.384 1.792-.576 2.832-.576 1.072 0 1.992.184 2.76.552.784.352 1.432.808 1.944 1.368a6.615 6.615 0 0 1 1.224 1.704l-2.688 1.488c-.224-.4-.496-.76-.816-1.08a3.393 3.393 0 0 0-1.056-.792 2.922 2.922 0 0 0-1.368-.312c-.672 0-1.176.16-1.512.48-.336.304-.504.664-.504 1.08 0 .416.136.784.408 1.104.272.304.688.6 1.248.888.56.272 1.264.552 2.112.84a9.192 9.192 0 0 1 1.56.72c.512.288.968.64 1.368 1.056.416.4.736.88.96 1.44.24.544.36 1.176.36 1.896 0 .816-.16 1.544-.48 2.184-.32.64-.76 1.184-1.32 1.632-.56.432-1.192.76-1.896.984-.688.24-1.416.36-2.184.36a7.233 7.233 0 0 1-2.88-.576 7.557 7.557 0 0 1-2.304-1.608 7.974 7.974 0 0 1-1.536-2.184l2.448-1.728zM67.614 9.28h3V28h-3V9.28zm7.056 7.68h3.72l-4.752 4.56L78.87 28h-3.696l-5.256-6.48 4.752-4.56zm5.428-4.272c0-.512.184-.928.552-1.248a1.89 1.89 0 0 1 1.32-.504c.512 0 .944.168 1.296.504.368.32.552.736.552 1.248 0 .496-.184.912-.552 1.248a1.806 1.806 0 0 1-1.296.504 1.89 1.89 0 0 1-1.32-.504 1.622 1.622 0 0 1-.552-1.248zm.336 4.272h3.024V28h-3.024V16.96zm6.06-7.68h3.12V28h-3.12V9.28zm5.924 0h3.12V28h-3.12V9.28zm7.675 13.08a9.218 9.218 0 0 0 1.152 1.632c.432.464.904.824 1.416 1.08a3.651 3.651 0 0 0 1.656.384c.688 0 1.248-.176 1.68-.528.432-.352.648-.832.648-1.44 0-.528-.136-.952-.408-1.272-.256-.32-.648-.6-1.176-.84a21.545 21.545 0 0 0-1.896-.816c-.4-.144-.864-.336-1.392-.576-.512-.256-1-.576-1.464-.96-.464-.4-.848-.88-1.152-1.44-.304-.576-.456-1.264-.456-2.064 0-.96.24-1.784.72-2.472.496-.704 1.16-1.24 1.992-1.608.848-.384 1.792-.576 2.832-.576 1.072 0 1.992.184 2.76.552.784.352 1.432.808 1.944 1.368a6.615 6.615 0 0 1 1.224 1.704l-2.688 1.488c-.224-.4-.496-.76-.816-1.08a3.393 3.393 0 0 0-1.056-.792 2.922 2.922 0 0 0-1.368-.312c-.672 0-1.176.16-1.512.48-.336.304-.504.664-.504 1.08 0 .416.136.784.408 1.104.272.304.688.6 1.248.888.56.272 1.264.552 2.112.84a9.192 9.192 0 0 1 1.56.72c.512.288.968.64 1.368 1.056.416.4.736.88.96 1.44.24.544.36 1.176.36 1.896 0 .816-.16 1.544-.48 2.184-.32.64-.76 1.184-1.32 1.632-.56.432-1.192.76-1.896.984-.688.24-1.416.36-2.184.36a7.233 7.233 0 0 1-2.88-.576 7.557 7.557 0 0 1-2.304-1.608 7.974 7.974 0 0 1-1.536-2.184l2.448-1.728zm10.766-5.4h3.312l2.424 6.12 3.12-6.96 3.24 6.984 2.448-6.144h3.288l-5.4 11.784-3.552-7.032-3.456 7.032-5.424-11.784zm21.248 7.608c0 .32.08.6.24.84.16.224.376.4.648.528.288.112.6.168.936.168.48 0 .912-.096 1.296-.288.384-.208.696-.496.936-.864.24-.384.36-.84.36-1.368l.384 1.44c0 .704-.2 1.296-.6 1.776-.384.48-.888.84-1.512 1.08-.608.24-1.248.36-1.92.36a4.543 4.543 0 0 1-1.92-.408 3.578 3.578 0 0 1-1.44-1.176c-.352-.528-.528-1.168-.528-1.92 0-1.072.376-1.92 1.128-2.544.752-.624 1.816-.936 3.192-.936.704 0 1.32.072 1.848.216.544.144 1 .32 1.368.528.368.208.632.408.792.6v1.44c-.432-.32-.92-.56-1.464-.72a5.763 5.763 0 0 0-1.68-.24c-.48 0-.872.064-1.176.192-.304.112-.528.28-.672.504-.144.208-.216.472-.216.792zm-1.2-4.488-1.152-2.112c.576-.304 1.28-.592 2.112-.864.832-.288 1.76-.432 2.784-.432.944 0 1.784.136 2.52.408.736.272 1.312.672 1.728 1.2.416.512.624 1.144.624 1.896V28h-3v-7.176c0-.304-.048-.56-.144-.768a1.27 1.27 0 0 0-.456-.552 1.851 1.851 0 0 0-.696-.312 3.99 3.99 0 0 0-.912-.096c-.512 0-1 .056-1.464.168a6.172 6.172 0 0 0-1.944.816zm14.292 13.2h-3.12V16.96h3.12v16.32zm9.072-10.8c0 1.248-.248 2.312-.744 3.192-.496.88-1.152 1.544-1.968 1.992-.8.448-1.664.672-2.592.672-.944 0-1.768-.24-2.472-.72-.688-.48-1.224-1.16-1.608-2.04-.368-.88-.552-1.912-.552-3.096 0-1.2.184-2.232.552-3.096.384-.88.92-1.56 1.608-2.04.704-.48 1.528-.72 2.472-.72.928 0 1.792.224 2.592.672.816.448 1.472 1.112 1.968 1.992.496.864.744 1.928.744 3.192zm-3.216 0c0-.656-.136-1.216-.408-1.68a2.696 2.696 0 0 0-1.104-1.056 3.1 3.1 0 0 0-1.488-.36c-.464 0-.92.12-1.368.36-.432.224-.792.568-1.08 1.032-.272.464-.408 1.032-.408 1.704 0 .672.136 1.24.408 1.704.288.464.648.816 1.08 1.056.448.224.904.336 1.368.336a3.1 3.1 0 0 0 1.488-.36c.464-.24.832-.592 1.104-1.056.272-.464.408-1.024.408-1.68z" fill="#253017"/></svg>